<svg width="50" height="50" viewBox="0 0 50 50" fill="none" xmlns="http://www.w3.org/2000/svg">
    <g clip-path="url(#clip0_1002_3243)">
        <path d="M46.162 0H3.83796C1.70576 0 0 1.70576 0 3.83796V46.162C0 48.2942 1.70576 50 3.83796 50H46.162C48.2942 50 50 48.2942 50 46.162V3.83796C50 1.70576 48.2942 0 46.162 0Z" fill="#29B6F6"></path>
        <path d="M13.7527 28.7846H6.28998V21.3219H13.7527V28.7846ZM23.6674 38.6993H16.2047V31.2367H23.6674V38.6993ZM23.6674 28.7846H16.2047V21.3219H23.6674V28.7846ZM23.6674 18.8699H16.2047V11.4072H23.6674V18.8699ZM33.5821 38.6993H26.1194V31.2367H33.5821V38.6993ZM33.5821 28.7846H26.1194V21.3219H33.5821V28.7846ZM33.5821 18.8699H26.1194V11.4072H33.5821V18.8699ZM43.3902 38.6993H35.9275V31.2367H43.3902V38.6993Z" fill="white"></path>
    </g>
    <defs>
        <clipPath id="clip0_1002_3243">
            <rect width="50" height="50" fill="white"></rect>
        </clipPath>
    </defs>
</svg>